<svg id="Layer_1" data-name="Layer 1" xmlns="http://www.w3.org/2000/svg" viewBox="0 0 100 100"><defs><style>.cls-1{fill:#f0bb17;}</style></defs><path class="cls-1" d="M77.62,87.07a0,0,0,0,1,0,0,0,0,0,0,0,0,0h0S77.62,87.09,77.62,87.07ZM58.36,94.19s0,0,.07,0h0ZM22.85,39.71a1,1,0,0,0,.06-.14Z"/><path class="cls-1" d="M97.47,37.94a48.76,48.76,0,0,0-5.75-13.61c-.15-.25-.35-.48-.54-.75L89,25a46.35,46.35,0,0,1,5,10.61A47.62,47.62,0,0,1,96.2,47.17a43,43,0,0,1-.82,11.64c-.21-.54-.33-1.09-.49-1.63A15.53,15.53,0,0,0,93,53.32a6.16,6.16,0,0,1-1.22-3.22c-.09,0-.14,0-.17,0a5.46,5.46,0,0,0-2.37,4.44,11.45,11.45,0,0,0,.66,3.58c.33,1.09.7,2.17,1,3.26a14.55,14.55,0,0,1,.46,7.32,1.68,1.68,0,0,0,.1.41,7.46,7.46,0,0,0,.74-2.39,38.52,38.52,0,0,0,.36-7.51,1.21,1.21,0,0,1,.1-.79,3.6,3.6,0,0,1,.4,1.39,20,20,0,0,1,.13,4.89A12.51,12.51,0,0,1,92.22,69,46.53,46.53,0,0,1,80.63,84.68c-.95.85-2,1.6-3,2.39,0,0,0,0,0,.05h0l-.4.34c0-.33.18-.4.4-.34a0,0,0,0,1,0,0,0,0,0,0,0,0,0c-.05-.31.24-.4.4-.57.86-.92,1.76-1.8,2.57-2.75a15.7,15.7,0,0,0,2.5-4.06,12,12,0,0,0,.79-7.47,5.73,5.73,0,0,0-.83-2A4.35,4.35,0,0,0,77.2,68.9a3.86,3.86,0,0,0-2,3.59,7.94,7.94,0,0,0,.43,2.22,11.88,11.88,0,0,1,.4,5.52A14.77,14.77,0,0,1,71.91,88a19.76,19.76,0,0,1-7.13,4.6,28.85,28.85,0,0,1-6.27,1.66h-.08s0,0-.07,0l.12,0h.05c.19-.42.65-.36,1-.48a17.13,17.13,0,0,0,7.06-4.48,20.14,20.14,0,0,0,4.63-7.79A27.11,27.11,0,0,0,72,69.72a43.23,43.23,0,0,0-3.43-12c-1.57-3.59-3.48-7-5.38-10.44-1.56-2.83-3.12-5.66-4.62-8.52a46.11,46.11,0,0,1-3.31-7.88,21.36,21.36,0,0,1-1.08-6.39,2.31,2.31,0,0,1,.16-1.28,6.27,6.27,0,0,1,.76,0c1.21.12,2.43.2,3.63.4a23.45,23.45,0,0,1,8.14,2.84,16.6,16.6,0,0,1,6.67,7.16,11.44,11.44,0,0,1,1.14,5.3,15.73,15.73,0,0,1-.47,3.27,5,5,0,0,0,.07,2.59,3.86,3.86,0,0,0,3.21,2.75A4.2,4.2,0,0,0,81.73,46a5.48,5.48,0,0,0,1.12-2.7,11.73,11.73,0,0,0-1-6.68,18,18,0,0,0-4.6-6,35,35,0,0,0-9.66-6,45,45,0,0,0-12.34-3.18c-.21,0-.41-.1-.61-.14a9.4,9.4,0,0,1,2.45-5.13c.33.15.67.31,1,.49l4.22,2.27a64.24,64.24,0,0,0,7.19,3.47A24.94,24.94,0,0,0,78,24.29a16.71,16.71,0,0,0,8.17-1.74A10.68,10.68,0,0,0,92,15.48a7.71,7.71,0,0,0-2.18-7.85,11.09,11.09,0,0,0-1.6-1.28A11.66,11.66,0,0,0,84.7,4.76a20.56,20.56,0,0,0-11.27.08A42.24,42.24,0,0,0,59.2,11.89c-.2.15-.43.28-.62.4-9.75-4.48-19.75-5.84-30.19-3a1.25,1.25,0,0,1,.42-.35A46,46,0,0,1,62.29,5.38a4,4,0,0,0,1.42.35,4.86,4.86,0,0,0,1.44-.65l1.94-.94c-.4-.17-.67-.3-1-.4A45.78,45.78,0,0,0,50.6,1a48.86,48.86,0,0,0-9.87,1A50.11,50.11,0,0,0,23.65,8.74,48.77,48.77,0,0,0,1,48.49,47.52,47.52,0,0,0,2.77,63.06,49.06,49.06,0,0,0,49.7,99a47.37,47.37,0,0,0,8.4-.68A48.88,48.88,0,0,0,97.23,63.1,49.45,49.45,0,0,0,99,49.91,48.32,48.32,0,0,0,97.47,37.94ZM60.53,12.44a32.76,32.76,0,0,1,9.76-5.32,24.13,24.13,0,0,1,6.78-1.44,17.17,17.17,0,0,1,6.85.9,9.68,9.68,0,0,1,2.4,1.27,5.84,5.84,0,0,1,1.77,7.53A7.42,7.42,0,0,1,86,17.89a12.21,12.21,0,0,1-9.2,2.58A22,22,0,0,1,69.24,18c-1.53-.76-3-1.6-4.52-2.42-1.27-.69-2.53-1.4-3.79-2.1L60,12.94A7.24,7.24,0,0,1,60.53,12.44ZM56.93,43c1.87,3.39,3.76,6.78,5.6,10.19a60.44,60.44,0,0,1,4.71,10.86,34.37,34.37,0,0,1,1.6,9.76c0,.14,0,.29,0,.61-.18-.24-.24-.29-.26-.36a96.68,96.68,0,0,0-5.13-13.88c-1.15-2.65-2.29-5.31-3.43-8a95.08,95.08,0,0,1-3.31-9.1c0-.11,0-.22-.1-.49A2.52,2.52,0,0,1,56.93,43ZM33.25,93.1c0-.07,0-.14,0-.2a0,0,0,0,0,0,0,1,1,0,0,1-1-.11,45.34,45.34,0,0,1-8.42-4.56A46,46,0,0,1,5.77,63.62a45.42,45.42,0,0,1-2-13.6A46.1,46.1,0,0,1,8.8,28.92a15,15,0,0,1,4.84-5.37,12,12,0,0,1,4.57-2.16,4.35,4.35,0,0,1-.57.46,40.3,40.3,0,0,0-5,3.42c-.5.41-1,.86-1.43,1.3-.25.24-.45.52-.73.84.17,0,.3.07.34,0a18,18,0,0,1,7.91-3.62c.74-.18,1.47-.39,2.19-.62a9.7,9.7,0,0,0,1.37-.58,5.3,5.3,0,0,0,3-4.41c0-.07,0-.14-.07-.24A8.28,8.28,0,0,1,24,18.4a21.54,21.54,0,0,1-2.27.23c-.9.07-1.82.07-2.73.18a9.05,9.05,0,0,0-4.36,1.84c-.09.06-.17.15-.27.21a2,2,0,0,1-.28.19c-.15-.19.05-.29.12-.37,1.24-1.35,2.44-2.73,3.73-4a20.74,20.74,0,0,1,10.45-5.51,32.68,32.68,0,0,1,10.44-.47,54.7,54.7,0,0,1,15.59,4.18c.31.13.61.29,1,.48-.62,1-1.26,1.85-1.78,2.8s-.91,1.92-1.38,2.95a5.62,5.62,0,0,1-.74.05A38.87,38.87,0,0,0,35.35,24,36.83,36.83,0,0,0,19.17,37.13a37.42,37.42,0,0,0-6.53,16.15A38.86,38.86,0,0,0,12.37,62a36.22,36.22,0,0,0,3.51,13.15A38,38,0,0,0,32.25,92.45c.33.17.68.29,1,.44h0a0,0,0,0,0,0,0l.05.24S33.25,93.11,33.25,93.1ZM22.08,75.63a55.7,55.7,0,0,0,3.52,7,.71.71,0,0,1,.13.54c-.38-.4-.77-.8-1.14-1.21a33.54,33.54,0,0,1-8.06-15.65,33.89,33.89,0,0,1,5.74-27.53l.1-.14h0l.12-.14.05-.07c.49-.67,1-1.32,1.56-2h0c.2-.26.4-.52.59-.75l.08-.09c.31-.39.56-.7.68-.82-.09.16-1.11,1.93-1.84,3.29l-.1.19c-.21.41-.41.83-.61,1.25h0a1,1,0,0,1-.06.14,43.82,43.82,0,0,0-3.57,12.4,46.94,46.94,0,0,0,2.8,23.52Zm30.5,17.14a8.43,8.43,0,0,1-3.86-1.28,4.42,4.42,0,0,1-1.83-2.13c-.22-.57-.4-1.15-.63-1.71a20.38,20.38,0,0,0-.95-2.19,3.38,3.38,0,0,0-2.86-1.82,4.59,4.59,0,0,0-4.75,4.27,4.18,4.18,0,0,0,1,2.63c.22.28.6.46.63.87h0l0,0,.19,0a.41.41,0,0,0-.05.09l-.14-.13-.06,0v0a2.06,2.06,0,0,1-1.1-.5,24.61,24.61,0,0,1-7.7-7.19,42.08,42.08,0,0,1-8.06-28A41.52,41.52,0,0,1,25.65,42,32.61,32.61,0,0,1,33.84,30.3a27.17,27.17,0,0,1,13.31-6.62c1.23-.23,2.48-.36,3.73-.52a5.55,5.55,0,0,1,.8,0c-.13,1-.29,1.93-.39,2.87a37.88,37.88,0,0,0,0,7.75,67.24,67.24,0,0,0,5.51,19.92c1.57,3.68,3.19,7.33,4.75,11a75.52,75.52,0,0,1,3.54,10,21.08,21.08,0,0,1,.77,5.75,15,15,0,0,1-.67,4.15A10.83,10.83,0,0,1,60,91,12.7,12.7,0,0,1,52.58,92.77Z"/><path class="cls-1" d="M77.6,87.09l-.41.36c0-.35.2-.41.44-.33Z"/><path class="cls-1" d="M39.31,91.44l.25,0-.05.09-.18-.17Z"/><path class="cls-1" d="M33.29,92.9l.05.24s-.09,0-.09,0a1.42,1.42,0,0,1,0-.22Z"/><path class="cls-1" d="M58.52,94.24l-.16-.06s0,0,.07,0l.1,0Z"/><path class="cls-1" d="M22.91,39.57a1,1,0,0,1-.06.14Z"/></svg>